<svg width="568" height="668" viewBox="0 0 568 668" fill="none" xmlns="http://www.w3.org/2000/svg">
<path d="M284.03 100.667C331.77 100.667 377.553 117.524 411.31 147.53C445.067 177.535 464.03 218.232 464.03 260.667C464.03 326.303 478.867 375.453 498.107 411.597C522.687 457.777 534.977 480.867 534.293 486.14C533.497 492.297 532.48 493.99 527.42 497.583C523.083 500.667 501.513 500.667 458.37 500.667H109.689C66.5461 500.667 44.9751 500.667 40.6388 497.583C35.5804 493.99 34.5641 492.297 33.7668 486.14C33.0831 480.867 45.3734 457.777 69.9544 411.597C89.1934 375.453 104.03 326.303 104.03 260.667C104.03 218.232 122.994 177.535 156.75 147.53C190.507 117.524 236.29 100.667 284.03 100.667ZM284.03 100.667V34M195.83 600.667C219.37 621.443 250.293 634.053 284.163 634.053C318.03 634.053 348.953 621.443 372.497 600.667" stroke="black" stroke-width="66.6667" stroke-linecap="round" stroke-linejoin="round"/>
</svg>
