<svg width="668" height="600" viewBox="0 0 668 600" fill="none" xmlns="http://www.w3.org/2000/svg">
<path d="M334 246.667V566.667M334 246.667C334 171.993 334 134.656 319.467 106.135C306.683 81.0465 286.287 60.6492 261.199 47.8658C232.677 33.3335 195.34 33.3335 120.667 33.3335H87.3333C68.665 33.3335 59.3307 33.3335 52.2003 36.9665C45.9283 40.1625 40.829 45.2618 37.633 51.5338C34 58.6642 34 67.9985 34 86.6668V446.667C34 465.337 34 474.67 37.633 481.8C40.829 488.073 45.9283 493.17 52.2003 496.367C59.3307 500 68.665 500 87.3333 500H185.556C203.562 500 212.565 500 221.271 501.553C228.998 502.93 236.537 505.21 243.73 508.354C251.835 511.89 259.326 516.883 274.307 526.873L334 566.667M334 246.667C334 171.993 334 134.656 348.533 106.135C361.317 81.0465 381.713 60.6492 406.8 47.8658C435.323 33.3335 472.66 33.3335 547.333 33.3335H580.667C599.337 33.3335 608.67 33.3335 615.8 36.9665C622.073 40.1625 627.17 45.2618 630.367 51.5338C634 58.6642 634 67.9985 634 86.6668V446.667C634 465.337 634 474.67 630.367 481.8C627.17 488.073 622.073 493.17 615.8 496.367C608.67 500 599.337 500 580.667 500H482.443C464.437 500 455.433 500 446.73 501.553C439 502.93 431.463 505.21 424.27 508.354C416.167 511.89 408.673 516.883 393.693 526.873L334 566.667" stroke="black" stroke-width="66.6667" stroke-linecap="round" stroke-linejoin="round"/>
</svg>
