<svg width="496" height="496" viewBox="0 0 496 496" fill="none" xmlns="http://www.w3.org/2000/svg">
<path d="M496 152C496 138.745 485.254 128 472 128C458.746 128 448 138.745 448 152H496ZM216 448C202.746 448 192 458.746 192 472C192 485.254 202.746 496 216 496V448ZM448 152C448 165.255 458.746 176 472 176C485.254 176 496 165.255 496 152H448ZM216 0C202.746 0 192 10.7453 192 24C192 37.2547 202.746 48 216 48V0ZM472 176C485.254 176 496 165.255 496 152C496 138.745 485.254 128 472 128V176ZM216 128C202.746 128 192 138.745 192 152C192 165.255 202.746 176 216 176V128ZM48 248C48 234.746 37.2547 224 24 224C10.7453 224 0 234.746 0 248H48ZM216 496C229.254 496 240 485.254 240 472C240 458.746 229.254 448 216 448V496ZM0 248C0 261.254 10.7453 272 24 272C37.2547 272 48 261.254 48 248H0ZM216 48C229.254 48 240 37.2547 240 24C240 10.7453 229.254 0 216 0V48ZM24 224C10.7453 224 0 234.746 0 248C0 261.254 10.7453 272 24 272V224ZM216 272C229.254 272 240 261.254 240 248C240 234.746 229.254 224 216 224V272ZM240 248C240 234.746 229.254 224 216 224C202.746 224 192 234.746 192 248H240ZM192 472C192 485.254 202.746 496 216 496C229.254 496 240 485.254 240 472H192ZM192 248C192 261.254 202.746 272 216 272C229.254 272 240 261.254 240 248H192ZM240 152C240 138.745 229.254 128 216 128C202.746 128 192 138.745 192 152H240ZM240 24C240 10.7453 229.254 0 216 0C202.746 0 192 10.7453 192 24H240ZM192 152C192 165.255 202.746 176 216 176C229.254 176 240 165.255 240 152H192ZM448 152V344H496V152H448ZM448 344C448 401.437 401.437 448 344 448V496C427.949 496 496 427.949 496 344H448ZM344 448H216V496H344V448ZM496 152C496 68.0528 427.949 0 344 0V48C401.437 48 448 94.5622 448 152H496ZM344 0H216V48H344V0ZM472 128H216V176H472V128ZM0 248V344H48V248H0ZM0 344C0 427.949 68.0528 496 152 496V448C94.5622 448 48 401.437 48 344H0ZM152 496H216V448H152V496ZM48 248V152H0V248H48ZM48 152C48 94.5622 94.5622 48 152 48V0C68.0528 0 0 68.0528 0 152H48ZM152 48H216V0H152V48ZM24 272H216V224H24V272ZM192 248V472H240V248H192ZM240 248V152H192V248H240ZM192 24V152H240V24H192Z" fill="black"/>
</svg>
